<svg width="29" height="28" viewBox="0 0 29 28" fill="none" xmlns="http://www.w3.org/2000/svg">
<path d="M22.7997 6.57523C26.9002 10.6757 26.9002 17.324 22.7997 21.4245M19.7064 9.66892C22.0984 12.0609 22.0984 15.939 19.7064 18.331M8.375 9.62491L13.8813 4.11863C14.4325 3.56741 15.375 3.95781 15.375 4.73735V23.2625C15.375 24.042 14.4325 24.4324 13.8813 23.8812L8.375 18.3749H5.76056C4.73466 18.3749 3.77356 17.784 3.5011 16.795C3.25595 15.905 3.125 14.9678 3.125 13.9999C3.125 13.0321 3.25595 12.0948 3.5011 11.2049C3.77356 10.2158 4.73466 9.62491 5.76056 9.62491H8.375Z" stroke="white" stroke-width="2" stroke-linecap="round" stroke-linejoin="round"/>
</svg>
